<mxfile host="65bd71144e">
    <diagram id="h1UYcD7knvbwRo3siLt6" name="Page-1">
        <mxGraphModel dx="1298" dy="2923" grid="1" gridSize="10" guides="1" tooltips="1" connect="1" arrows="1" fold="1" page="1" pageScale="1" pageWidth="1654" pageHeight="2336" math="0" shadow="0">
            <root>
                <mxCell id="0"/>
                <mxCell id="1" parent="0"/>
                <mxCell id="2" value="" style="rounded=0;whiteSpace=wrap;html=1;" vertex="1" parent="1">
                    <mxGeometry x="410" y="-40" width="270" height="640" as="geometry"/>
                </mxCell>
                <mxCell id="3" value="ECStack(调用栈)" style="text;html=1;align=center;verticalAlign=middle;resizable=0;points=[];autosize=1;strokeColor=none;" vertex="1" parent="1">
                    <mxGeometry x="410" y="-70" width="110" height="20" as="geometry"/>
                </mxCell>
                <mxCell id="4" value="window&lt;br&gt;message: &quot;Hello Global&quot;&lt;br&gt;foo: 0xa00&lt;br&gt;bar: 0xb00" style="rounded=0;whiteSpace=wrap;html=1;align=left;" vertex="1" parent="1">
                    <mxGeometry x="1050" y="110" width="150" height="120" as="geometry"/>
                </mxCell>
                <mxCell id="5" value="GlobalObject" style="text;html=1;align=center;verticalAlign=middle;resizable=0;points=[];autosize=1;strokeColor=none;" vertex="1" parent="1">
                    <mxGeometry x="1050" y="70" width="80" height="20" as="geometry"/>
                </mxCell>
                <mxCell id="6" value="[parent scope]: GO&lt;br&gt;函数体: 代码块" style="rounded=0;whiteSpace=wrap;html=1;align=left;" vertex="1" parent="1">
                    <mxGeometry x="1060" y="350" width="150" height="120" as="geometry"/>
                </mxCell>
                <mxCell id="7" value="foo函数对象 0xa00" style="text;html=1;align=center;verticalAlign=middle;resizable=0;points=[];autosize=1;strokeColor=none;" vertex="1" parent="1">
                    <mxGeometry x="1050" y="320" width="120" height="20" as="geometry"/>
                </mxCell>
                <mxCell id="8" value="[parent scope]: GO&lt;br&gt;函数体: 代码块" style="rounded=0;whiteSpace=wrap;html=1;align=left;" vertex="1" parent="1">
                    <mxGeometry x="820" y="350" width="150" height="120" as="geometry"/>
                </mxCell>
                <mxCell id="9" value="bar函数对象 0xb00" style="text;html=1;align=center;verticalAlign=middle;resizable=0;points=[];autosize=1;strokeColor=none;" vertex="1" parent="1">
                    <mxGeometry x="810" y="320" width="120" height="20" as="geometry"/>
                </mxCell>
                <mxCell id="10" value="" style="rounded=0;whiteSpace=wrap;html=1;align=left;" vertex="1" parent="1">
                    <mxGeometry x="420" y="410" width="250" height="170" as="geometry"/>
                </mxCell>
                <mxCell id="11" value="VO对象: GO" style="rounded=0;whiteSpace=wrap;html=1;align=left;" vertex="1" parent="1">
                    <mxGeometry x="440" y="430" width="210" height="60" as="geometry"/>
                </mxCell>
                <mxCell id="12" value="执行代码" style="rounded=0;whiteSpace=wrap;html=1;align=left;" vertex="1" parent="1">
                    <mxGeometry x="440" y="500" width="210" height="60" as="geometry"/>
                </mxCell>
                <mxCell id="13" value="" style="rounded=0;whiteSpace=wrap;html=1;align=left;" vertex="1" parent="1">
                    <mxGeometry x="420" y="220" width="250" height="170" as="geometry"/>
                </mxCell>
                <mxCell id="14" value="函数执行上下文(FEC)" style="text;html=1;align=center;verticalAlign=middle;resizable=0;points=[];autosize=1;strokeColor=none;" vertex="1" parent="1">
                    <mxGeometry x="420" y="190" width="130" height="20" as="geometry"/>
                </mxCell>
                <mxCell id="15" value="VO对象: AO" style="rounded=0;whiteSpace=wrap;html=1;align=left;" vertex="1" parent="1">
                    <mxGeometry x="430" y="230" width="210" height="60" as="geometry"/>
                </mxCell>
                <mxCell id="16" value="message: &quot;Hello Bar&quot;" style="rounded=0;whiteSpace=wrap;html=1;align=left;" vertex="1" parent="1">
                    <mxGeometry x="820" y="110" width="150" height="120" as="geometry"/>
                </mxCell>
                <mxCell id="17" value="Activation Object" style="text;html=1;align=center;verticalAlign=middle;resizable=0;points=[];autosize=1;strokeColor=none;" vertex="1" parent="1">
                    <mxGeometry x="815" y="70" width="110" height="20" as="geometry"/>
                </mxCell>
                <mxCell id="18" value="执行代码&lt;br&gt;foo()" style="rounded=0;whiteSpace=wrap;html=1;align=left;" vertex="1" parent="1">
                    <mxGeometry x="430" y="300" width="210" height="70" as="geometry"/>
                </mxCell>
                <mxCell id="23" value="" style="rounded=0;whiteSpace=wrap;html=1;align=left;" vertex="1" parent="1">
                    <mxGeometry x="420" y="10" width="250" height="170" as="geometry"/>
                </mxCell>
                <mxCell id="24" value="函数执行上下文(FEC) foo" style="text;html=1;align=center;verticalAlign=middle;resizable=0;points=[];autosize=1;strokeColor=none;" vertex="1" parent="1">
                    <mxGeometry x="410" y="-20" width="150" height="20" as="geometry"/>
                </mxCell>
                <mxCell id="25" value="VO对象: AO&lt;br&gt;scopechain: VO+parentScope" style="rounded=0;whiteSpace=wrap;html=1;align=left;" vertex="1" parent="1">
                    <mxGeometry x="430" y="20" width="210" height="60" as="geometry"/>
                </mxCell>
                <mxCell id="26" value="执行代码&lt;br&gt;console.log(message)" style="rounded=0;whiteSpace=wrap;html=1;align=left;" vertex="1" parent="1">
                    <mxGeometry x="430" y="90" width="210" height="70" as="geometry"/>
                </mxCell>
                <mxCell id="31" value="{}" style="rounded=0;whiteSpace=wrap;html=1;align=left;" vertex="1" parent="1">
                    <mxGeometry x="695" y="130" width="103" height="90" as="geometry"/>
                </mxCell>
                <mxCell id="32" value="Activation Object" style="text;html=1;align=center;verticalAlign=middle;resizable=0;points=[];autosize=1;strokeColor=none;" vertex="1" parent="1">
                    <mxGeometry x="690" y="90" width="110" height="20" as="geometry"/>
                </mxCell>
            </root>
        </mxGraphModel>
    </diagram>
</mxfile>